<svg id="Fondo" xmlns="http://www.w3.org/2000/svg" viewBox="0 0 600 600"><title>Monograma LR</title><rect width="600" height="600" fill="#1a1a1a"/><path d="M218.13,199.37v5q-8.5.25-12.88,1.88a9.33,9.33,0,0,0-5.87,6q-1.5,4.38-1.5,13.62v127q0,7.75,1.12,11.5a7.17,7.17,0,0,0,4.5,5c2.25.84,5.63,1.25,10.13,1.25h12.25a33.48,33.48,0,0,0,16-4,44.17,44.17,0,0,0,13.5-11.37,65.38,65.38,0,0,0,10-17.63,111.23,111.23,0,0,0,6-22.75h5.75q-.75,8.5-.75,22,0,5.76.25,16.75t1.5,22.75q-12.75-.5-28.75-.62t-28.5-.13h-16q-9.75,0-21,.13l-22.75.25q-11.5.12-21.75.37v-5q8-.5,12-2a8.7,8.7,0,0,0,5.37-6q1.38-4.5,1.38-13.5v-124q0-9.24-1.38-13.62a9,9,0,0,0-5.5-6q-4.12-1.62-11.87-1.88v-5q6.24.25,16.87.5t22.63.25q11,0,21.62-.25T218.13,199.37Z" fill="#d4af37"/><path d="M299.63,199.37q6.24.25,16.87.5t21.13.25q12,0,23.25-.25t16-.25q23.25,0,38.62,5.13t23,14.87q7.62,9.75,7.63,23.5a45.35,45.35,0,0,1-3.5,17.13,43.24,43.24,0,0,1-11.88,16q-8.38,7.38-22.87,11.75t-36.5,4.37h-24v-5h21.5q14.75,0,22.37-5.62a28.53,28.53,0,0,0,10.5-15,71.26,71.26,0,0,0,2.88-20.88q0-19.74-7-30.62t-24-10.88c-6.5,0-10.72,1.42-12.63,4.25s-2.87,8.59-2.87,17.25v124q0,9,1.37,13.5a8.67,8.67,0,0,0,5.38,6q4,1.5,12,2v5q-6.75-.5-17-.62t-20.75-.13q-12,0-22.63.13t-16.87.62v-5q8-.5,12-2a8.7,8.7,0,0,0,5.37-6c.91-3,1.38-7.5,1.38-13.5v-124c0-6.16-.47-10.7-1.38-13.62a9,9,0,0,0-5.5-6q-4.12-1.62-11.87-1.88Zm47.25,88.75q10.74.25,18.62,1t13.88,1.38q6,.63,10.75.87,22.74,2,33.62,9.75t14.13,23.25l5.75,25.75q2.25,10,4.75,14a8,8,0,0,0,7.25,4A11.27,11.27,0,0,0,461,366.5a24.85,24.85,0,0,0,4.63-4.13l3.5,3a41.38,41.38,0,0,1-14.5,11.13q-7.75,3.38-18.75,3.37-13.5,0-22.25-5.75t-11.5-21.25l-4.5-25a135.54,135.54,0,0,0-4.25-18.37A32.07,32.07,0,0,0,386.5,297q-4.38-4.62-12.12-4.63h-27Z" fill="#d4af37"/></svg>