<svg id="Fondo" xmlns="http://www.w3.org/2000/svg" viewBox="0 0 800 400"><title>Logo Simplificado Dorado</title><rect width="800" height="400" fill="#1a1a1a"/><path d="M180,171.82v1.4a12.15,12.15,0,0,0-3.61.53,2.61,2.61,0,0,0-1.64,1.68,12.7,12.7,0,0,0-.42,3.81V214.8a12.12,12.12,0,0,0,.31,3.22,2,2,0,0,0,1.26,1.4,8.51,8.51,0,0,0,2.84.35h3.43a9.36,9.36,0,0,0,4.48-1.12,12.25,12.25,0,0,0,3.78-3.18,18.36,18.36,0,0,0,2.8-4.94,31.65,31.65,0,0,0,1.68-6.37h1.61q-.21,2.39-.21,6.16c0,1.08,0,2.64.07,4.69s.18,4.18.42,6.37c-2.38-.09-5.07-.15-8-.17s-5.65,0-8,0h-4.48c-1.82,0-3.78,0-5.88,0l-6.37.07c-2.15,0-4.18.06-6.09.1V220a12.28,12.28,0,0,0,3.36-.56,2.43,2.43,0,0,0,1.5-1.68,13.67,13.67,0,0,0,.39-3.78V179.24a13.62,13.62,0,0,0-.39-3.81,2.49,2.49,0,0,0-1.54-1.68,10.55,10.55,0,0,0-3.32-.53v-1.4c1.16.05,2.74.1,4.72.14s4.1.07,6.34.07Q172,172,175,172C177,171.92,178.65,171.87,180,171.82Z" fill="#d4af37"/><path d="M231.06,171.68l17,43.82a8,8,0,0,0,2.2,3.47,4.22,4.22,0,0,0,2.21,1v1.4c-1.4-.09-3-.15-4.94-.17s-3.79,0-5.7,0c-2.15,0-4.18,0-6.09,0s-3.43.08-4.55.17V220c2.38-.09,3.88-.5,4.51-1.22s.48-2.28-.45-4.66l-11.9-32.55,1.26-1.82L214,207.45a27.28,27.28,0,0,0-1.86,6.3,6.71,6.71,0,0,0,.35,3.78,3.69,3.69,0,0,0,2.17,1.86,12,12,0,0,0,3.61.59v1.4c-1.54-.09-3-.15-4.41-.17s-2.83,0-4.27,0c-1,0-2,0-2.91,0a22.92,22.92,0,0,0-2.41.17V220a5.8,5.8,0,0,0,3-1.89,16.8,16.8,0,0,0,3-5.46l16-40.95c.74,0,1.55.07,2.41.07S230.31,171.73,231.06,171.68Zm4.9,29.54v1.41H215.1l.7-1.41Z" fill="#d4af37"/><path d="M284.68,171.82c1.16.05,2.74.1,4.72.14s4,.07,5.92.07c2.23,0,4.41,0,6.51-.07s3.59-.07,4.47-.07a34.55,34.55,0,0,1,10.82,1.44,13.2,13.2,0,0,1,6.44,4.16,10.39,10.39,0,0,1,2.14,6.58,12.58,12.58,0,0,1-1,4.8,12.08,12.08,0,0,1-3.32,4.48,17,17,0,0,1-6.4,3.29,35.94,35.94,0,0,1-10.22,1.22H298v-1.4h6q4.13,0,6.26-1.57a8,8,0,0,0,2.94-4.2,19.79,19.79,0,0,0,.81-5.85c0-3.68-.66-6.54-2-8.57s-3.55-3.05-6.72-3.05c-1.82,0-3,.4-3.54,1.19s-.81,2.41-.81,4.83V214a13.67,13.67,0,0,0,.39,3.78,2.44,2.44,0,0,0,1.51,1.68,12.12,12.12,0,0,0,3.35.56v1.4c-1.26-.09-2.84-.15-4.76-.17s-3.84,0-5.8,0c-2.24,0-4.36,0-6.34,0s-3.56.08-4.72.17V220a12.28,12.28,0,0,0,3.36-.56,2.45,2.45,0,0,0,1.5-1.68,13.67,13.67,0,0,0,.39-3.78V179.24a13.62,13.62,0,0,0-.39-3.81,2.52,2.52,0,0,0-1.54-1.68,10.55,10.55,0,0,0-3.32-.53Zm13.23,24.85c2,.05,3.74.14,5.21.28l3.89.39c1.12.12,2.12.2,3,.24q6.36.57,9.41,2.73a10.16,10.16,0,0,1,3.95,6.51L325,214a13.49,13.49,0,0,0,1.33,3.92,2.23,2.23,0,0,0,2,1.12,3.09,3.09,0,0,0,1.5-.45,6.83,6.83,0,0,0,1.3-1.16l1,.84a11.49,11.49,0,0,1-4.05,3.12,13.14,13.14,0,0,1-5.25.94,11,11,0,0,1-6.23-1.61q-2.46-1.6-3.22-5.95l-1.26-7a39,39,0,0,0-1.19-5.14,8.93,8.93,0,0,0-1.93-3.5,4.47,4.47,0,0,0-3.39-1.3H298Z" fill="#d4af37"/><path d="M377.56,171.82q-.27,3.09-.38,6c-.07,1.92-.11,3.39-.11,4.41s0,1.82.07,2.66.1,1.54.14,2.1h-1.61a26.64,26.64,0,0,0-2.17-8.08,9.06,9.06,0,0,0-3.81-4.2,11.68,11.68,0,0,0-5.5-1.23h-2.87a10.43,10.43,0,0,0-3.08.35,2.13,2.13,0,0,0-1.4,1.4,11.09,11.09,0,0,0-.35,3.22v36.4a11,11,0,0,0,.35,3.22,2.11,2.11,0,0,0,1.4,1.4,10.1,10.1,0,0,0,3.08.35h3.43a11.13,11.13,0,0,0,5.57-1.36,10.93,10.93,0,0,0,4.13-4.66,29.78,29.78,0,0,0,2.62-8.89h1.61q-.21,2.25-.21,5.88c0,1.08,0,2.59.07,4.55s.19,4,.42,6.09q-3.57-.13-8-.17c-3,0-5.64,0-8,0h-4.47c-1.83,0-3.79,0-5.89,0l-6.36.07c-2.15,0-4.18.06-6.1.1V220a12.13,12.13,0,0,0,3.36-.56,2.44,2.44,0,0,0,1.51-1.68,13.75,13.75,0,0,0,.38-3.78V179.24a13.7,13.7,0,0,0-.38-3.81,2.52,2.52,0,0,0-1.54-1.68,10.57,10.57,0,0,0-3.33-.53v-1.4q2.88.08,6.1.11l6.36.07,5.89,0h4.47l7.32,0Q374.35,172,377.56,171.82Zm-10.92,23.94v1.4H354.39v-1.4Zm2-9.24q-.27,4-.24,6.09c0,1.4,0,2.69,0,3.85s0,2.45.07,3.85.17,3.43.35,6.09h-1.61a16.74,16.74,0,0,0-1.29-4.55,8.39,8.39,0,0,0-2.7-3.39,7.46,7.46,0,0,0-4.55-1.3v-1.4a6.89,6.89,0,0,0,3.57-.87,7.32,7.32,0,0,0,2.42-2.31,13.51,13.51,0,0,0,1.5-3.05,20.63,20.63,0,0,0,.84-3Z" fill="#d4af37"/><path d="M409,170.91a18.22,18.22,0,0,1,6.37.88,24.34,24.34,0,0,1,3.85,1.85c.56.33,1,.58,1.37.74a2.46,2.46,0,0,0,1,.25,1.07,1.07,0,0,0,1-.78,10,10,0,0,0,.52-2.31h1.61c0,.89-.1,2-.17,3.19s-.12,2.86-.14,4.86,0,4.65,0,7.91h-1.61a23,23,0,0,0-1.68-7.07,14.59,14.59,0,0,0-4-5.63,9.25,9.25,0,0,0-6.27-2.21,8.12,8.12,0,0,0-5.53,1.89,6.62,6.62,0,0,0-2.17,5.25,8.17,8.17,0,0,0,1.4,4.8,16.57,16.57,0,0,0,4.1,3.88c1.79,1.26,4,2.78,6.54,4.55a68.77,68.77,0,0,1,6,4.34,18.23,18.23,0,0,1,4.27,4.9,12.53,12.53,0,0,1,1.61,6.51,11.79,11.79,0,0,1-2.41,7.63,14.6,14.6,0,0,1-6.34,4.52,23.88,23.88,0,0,1-8.61,1.5,23.17,23.17,0,0,1-6.93-.84,28.83,28.83,0,0,1-4.34-1.75,5.07,5.07,0,0,0-2.38-1,1.07,1.07,0,0,0-1,.77,10.18,10.18,0,0,0-.53,2.32H393c.1-1.13.15-2.43.18-3.93s0-3.44.07-5.84,0-5.45,0-9.14h1.61a34.91,34.91,0,0,0,1.58,8.65,14.49,14.49,0,0,0,4,6.47,10.21,10.21,0,0,0,7.17,2.45,10.51,10.51,0,0,0,4.38-.87,7.35,7.35,0,0,0,3.11-2.63,7.47,7.47,0,0,0,1.19-4.34,9.4,9.4,0,0,0-1.36-5.11,16.85,16.85,0,0,0-3.71-4.06,60.78,60.78,0,0,0-5.43-3.85q-3.28-2.16-6.16-4.34a18,18,0,0,1-4.58-5,12.46,12.46,0,0,1-1.72-6.66,11.44,11.44,0,0,1,2.21-7.24,13,13,0,0,1,5.81-4.2A21.45,21.45,0,0,1,409,170.91Z" fill="#d4af37"/><path d="M476.82,171.82q-.27,3.09-.38,6c-.07,1.92-.11,3.39-.11,4.41s0,1.82.07,2.66.1,1.54.14,2.1h-1.61a26.64,26.64,0,0,0-2.17-8.08,9.06,9.06,0,0,0-3.81-4.2,11.71,11.71,0,0,0-5.5-1.23h-2.87a10.43,10.43,0,0,0-3.08.35,2.13,2.13,0,0,0-1.4,1.4,11.09,11.09,0,0,0-.35,3.22v36.4a11,11,0,0,0,.35,3.22,2.11,2.11,0,0,0,1.4,1.4,10.1,10.1,0,0,0,3.08.35H464a11.13,11.13,0,0,0,5.57-1.36,10.93,10.93,0,0,0,4.13-4.66,29.78,29.78,0,0,0,2.62-8.89h1.61q-.21,2.25-.21,5.88c0,1.08,0,2.59.07,4.55s.19,4,.42,6.09q-3.57-.13-8.05-.17c-3,0-5.64,0-8,0h-4.48c-1.82,0-3.78,0-5.88,0l-6.37.07c-2.14,0-4.17.06-6.09.1V220a12.13,12.13,0,0,0,3.36-.56,2.44,2.44,0,0,0,1.51-1.68,14.15,14.15,0,0,0,.38-3.78V179.24a14.1,14.1,0,0,0-.38-3.81,2.52,2.52,0,0,0-1.54-1.68,10.57,10.57,0,0,0-3.33-.53v-1.4q2.88.08,6.09.11l6.37.07,5.88,0h4.48l7.32,0Q473.61,172,476.82,171.82ZM465.9,195.76v1.4H453.65v-1.4Zm2-9.24c-.18,2.66-.27,4.69-.24,6.09s0,2.69,0,3.85,0,2.45.07,3.85.17,3.43.35,6.09h-1.61a16.74,16.74,0,0,0-1.29-4.55,8.39,8.39,0,0,0-2.7-3.39,7.46,7.46,0,0,0-4.55-1.3v-1.4a6.89,6.89,0,0,0,3.57-.87,7.32,7.32,0,0,0,2.42-2.31,13.51,13.51,0,0,0,1.5-3.05,20.63,20.63,0,0,0,.84-3Z" fill="#d4af37"/><path d="M490.75,171.82c1.17.05,2.74.1,4.73.14s3.95.07,5.91.07q3.36,0,6.51-.07c2.1,0,3.6-.07,4.48-.07a34.6,34.6,0,0,1,10.82,1.44,13.25,13.25,0,0,1,6.44,4.16,10.39,10.39,0,0,1,2.13,6.58,12.56,12.56,0,0,1-1,4.8,12.08,12.08,0,0,1-3.32,4.48,17.07,17.07,0,0,1-6.41,3.29,35.85,35.85,0,0,1-10.22,1.22h-6.72v-1.4h6c2.76,0,4.84-.52,6.27-1.57a8,8,0,0,0,2.94-4.2,20.13,20.13,0,0,0,.8-5.85q0-5.52-2-8.57c-1.31-2-3.54-3.05-6.72-3.05-1.82,0-3,.4-3.53,1.19s-.81,2.41-.81,4.83V214a13.67,13.67,0,0,0,.39,3.78,2.43,2.43,0,0,0,1.5,1.68,12.28,12.28,0,0,0,3.36.56v1.4c-1.26-.09-2.84-.15-4.76-.17s-3.85,0-5.81,0c-2.24,0-4.35,0-6.33,0s-3.56.08-4.73.17V220a12.13,12.13,0,0,0,3.36-.56,2.44,2.44,0,0,0,1.51-1.68A14.15,14.15,0,0,0,496,214V179.24a14.1,14.1,0,0,0-.38-3.81,2.52,2.52,0,0,0-1.54-1.68,10.57,10.57,0,0,0-3.33-.53ZM504,196.67c2,.05,3.75.14,5.22.28l3.88.39c1.12.12,2.13.2,3,.24q6.38.57,9.42,2.73a10.16,10.16,0,0,1,4,6.51l1.61,7.21A13.8,13.8,0,0,0,532.4,218a2.25,2.25,0,0,0,2,1.12,3.09,3.09,0,0,0,1.51-.45,6.81,6.81,0,0,0,1.29-1.16l1,.84a11.52,11.52,0,0,1-4.06,3.12,13.07,13.07,0,0,1-5.25.94,11.07,11.07,0,0,1-6.23-1.61c-1.63-1.07-2.71-3.05-3.22-5.95l-1.26-7a36.06,36.06,0,0,0-1.19-5.14,8.92,8.92,0,0,0-1.92-3.5,4.47,4.47,0,0,0-3.4-1.3h-7.56Z" fill="#d4af37"/><path d="M589.66,171.82v1.4a8.69,8.69,0,0,0-3.25,2.45,18.11,18.11,0,0,0-3.19,5.88l-14.77,40a11,11,0,0,0-1.19-.07h-2.45a11,11,0,0,0-1.19.07L545.77,177.7a8.17,8.17,0,0,0-2.17-3.46,4.17,4.17,0,0,0-2.24-1v-1.4c1.4.05,3,.1,4.94.14s3.79.07,5.7.07q3.22,0,6.06-.07c1.89,0,3.41-.09,4.58-.14v1.4a12,12,0,0,0-3.5.53,1.92,1.92,0,0,0-1.4,1.68,8.53,8.53,0,0,0,.84,3.67l12.74,32.41-1.47,1.75,9.66-26a28.32,28.32,0,0,0,2-8.26c0-2-.44-3.45-1.47-4.33a6.83,6.83,0,0,0-4.41-1.41v-1.4l4.48.14c1.4,0,2.82.07,4.27.07,1,0,2,0,2.91-.07S589,171.87,589.66,171.82Z" fill="#d4af37"/><path d="M616.54,171.68l17,43.82a8,8,0,0,0,2.21,3.47,4.19,4.19,0,0,0,2.2,1v1.4c-1.4-.09-3-.15-4.93-.17s-3.79,0-5.71,0c-2.14,0-4.17,0-6.09,0s-3.43.08-4.55.17V220c2.38-.09,3.89-.5,4.52-1.22s.48-2.28-.46-4.66l-11.9-32.55,1.26-1.82-10.64,27.72a27.68,27.68,0,0,0-1.85,6.3,6.62,6.62,0,0,0,.35,3.78,3.63,3.63,0,0,0,2.17,1.86,12,12,0,0,0,3.6.59v1.4c-1.54-.09-3-.15-4.41-.17s-2.82,0-4.27,0c-1,0-2,0-2.9,0a23.13,23.13,0,0,0-2.42.17V220a5.8,5.8,0,0,0,3-1.89,16.62,16.62,0,0,0,3-5.46l16-40.95c.75,0,1.55.07,2.42.07S615.79,171.73,616.54,171.68Zm4.9,29.54v1.41H600.58l.7-1.41Z" fill="#d4af37"/></svg>