<?xml version="1.0" encoding="utf-8"?>
<!-- Generator: Adobe Illustrator 24.0.2, SVG Export Plug-In . SVG Version: 6.00 Build 0)  -->
<svg version="1.1" id="Fondo" xmlns="http://www.w3.org/2000/svg" xmlns:xlink="http://www.w3.org/1999/xlink" x="0px" y="0px"
	 viewBox="0 0 797 141" style="enable-background:new 0 0 797 141;" xml:space="preserve">
<style type="text/css">
	.st0{fill:#1A1A1A;}
	.st1{fill:#D4AF37;stroke:#D4AF37;stroke-miterlimit:10;}
	.st2{fill:#FFFFFF;}
	.st3{fill:#494949;}
	.st4{fill:#FFFFFF;stroke:#FFFFFF;stroke-miterlimit:10;}
	.st5{fill:#1A1A1A;stroke:#1A1A1A;stroke-miterlimit:10;}
	.st6{font-family:'PlayfairDisplay-Bold';}
	.st7{font-size:109.0166px;}
	.st8{letter-spacing:10;}
	.st9{fill:none;stroke:#D4AF37;stroke-width:3.6449;stroke-miterlimit:10;}
</style>
<g>
	<rect x="-4182.2" y="-409.2" class="st0" width="998.4" height="998.4"/>
	<path d="M-3184.6-408.4v996.9h-996.9v-996.9H-3184.6 M-3183-410h-1000V590h1000V-410L-3183-410z"/>
</g>
<g>
	<text transform="matrix(1 0 0 1 -3966.2761 106.1394)" class="st6" style="fill:#D4AF37; font-size:80px; letter-spacing:8;">LA RESERVA</text>
	<line class="st1" x1="-3883" y1="116.1" x2="-3483" y2="116.1"/>
	
		<text transform="matrix(1 0 0 1 -3780.3059 138.8059)" class="st2" style="font-family:'PlayfairDisplay-Regular'; font-size:14px; letter-spacing:2;">MIXOLOGÍA EXCLUSIVA</text>
</g>
<g>
	<rect x="-3162.2" y="-409.2" class="st2" width="998.4" height="998.4"/>
	<path d="M-2164.6-408.4v996.9h-996.9v-996.9H-2164.6 M-2163-410h-1000V590h1000V-410L-2163-410z"/>
</g>
<g>
	<text transform="matrix(1 0 0 1 -2946.2761 106.1394)" class="st0 st6" style="font-size:80px; letter-spacing:8;">LA RESERVA</text>
	<line class="st1" x1="-2863" y1="116.1" x2="-2463" y2="116.1"/>
	
		<text transform="matrix(1 0 0 1 -2760.3059 138.8059)" style="fill:#2D2D2D; font-family:'PlayfairDisplay-Regular'; font-size:14px; letter-spacing:2;">MIXOLOGÍA EXCLUSIVA</text>
</g>
<g>
	<rect x="-2142.2" y="-409.2" class="st3" width="998.4" height="998.4"/>
	<path d="M-1144.6-408.4v996.9h-996.9v-996.9H-1144.6 M-1143-410h-1000V590h1000V-410L-1143-410z"/>
</g>
<g>
	<text transform="matrix(1 0 0 1 -1926.2761 106.1394)" class="st2 st6" style="font-size:80px; letter-spacing:8;">LA RESERVA</text>
	<line class="st4" x1="-1843" y1="116.1" x2="-1443" y2="116.1"/>
	
		<text transform="matrix(1 0 0 1 -1740.3059 138.8059)" class="st2" style="font-family:'PlayfairDisplay-Regular'; font-size:14px; letter-spacing:2;">MIXOLOGÍA EXCLUSIVA</text>
</g>
<g>
	<rect x="-1122.2" y="-409.2" class="st2" width="998.4" height="998.4"/>
	<path d="M-124.6-408.4v996.9h-996.9v-996.9H-124.6 M-123-410h-1000V590h1000V-410L-123-410z"/>
</g>
<g>
	<text transform="matrix(1 0 0 1 -906.2761 106.1394)" class="st0 st6" style="font-size:80px; letter-spacing:8;">LA RESERVA</text>
	<line class="st5" x1="-823" y1="116.1" x2="-423" y2="116.1"/>
	
		<text transform="matrix(1 0 0 1 -720.3059 138.8059)" class="st0" style="font-family:'PlayfairDisplay-Regular'; font-size:14px; letter-spacing:2;">MIXOLOGÍA EXCLUSIVA</text>
</g>
<text transform="matrix(1 0 0 1 14.4766 107.8042)" class="st0 st6 st7 st8">LA RESERVA</text>
<rect x="1637" y="-110" class="st0" width="800" height="400"/>
<text transform="matrix(1 0 0 1 1789.1328 111.3845)" class="st6" style="fill:#D4AF37; font-size:70px; letter-spacing:7;">LA RESERVA</text>
<rect x="917" y="-210" class="st0" width="600" height="600"/>
<text transform="matrix(1 0 0 1 1046.5039 166.374)" class="st6" style="fill:#D4AF37; font-size:250px; letter-spacing:7;">LR</text>
<rect x="2457" y="-210" class="st0" width="600" height="600"/>
<text transform="matrix(1 0 0 1 2586.5039 166.3738)" class="st6" style="fill:#D4AF37; font-size:250px; letter-spacing:7;">LR</text>
<circle class="st9" cx="2757" cy="90" r="225"/>
</svg>
